<svg xmlns="http://www.w3.org/2000/svg" height="69.85" width="66.04"><path fill="#575757" d="M66.037 69.852H-.003V.002h66.04v69.85z"/><path d="M45.54 23.222l-3.41-8.93h1.263l2.83 7.518 2.835-7.52h1.256l-3.404 8.932h-1.37m-12.435-8.93h7.555v1.016h-3.17v7.914h-1.214v-7.914h-3.17V14.29m-3.073 32.632V57.69h-6.555V29.38h6.555v3.004c.904-1.196 1.905-2.075 3.003-2.636 1.1-.574 2.362-.86 3.79-.86 2.527 0 4.603 1.006 6.226 3.02 1.624 2.002 2.436 4.584 2.436 7.746 0 3.16-.812 5.75-2.436 7.763-1.623 2.002-3.7 3.003-6.225 3.003-1.43 0-2.692-.28-3.79-.842-1.1-.574-2.1-1.46-3.004-2.655m4.358-13.275c-1.402 0-2.483.52-3.24 1.556-.744 1.026-1.117 2.51-1.117 4.45 0 1.94.373 3.43 1.117 4.468.757 1.025 1.837 1.538 3.24 1.538 1.405 0 2.473-.513 3.206-1.538.744-1.026 1.117-2.515 1.117-4.468 0-1.953-.373-3.443-1.117-4.468-.733-1.025-1.8-1.538-3.205-1.538m-13.986-21.49v4.66h5.552v2.094h-5.552v8.906c0 1.338.18 2.197.542 2.578.37.38 1.12.57 2.242.57h2.768v2.257h-2.768c-2.08 0-3.516-.385-4.307-1.157-.79-.78-1.186-2.197-1.186-4.248v-8.906h-1.977v-2.095h1.977V12.16h2.71" fill="#FFF" font-size="15"/></svg>