<svg xmlns="http://www.w3.org/2000/svg" enable-background="new 0 0 500 500" height="480" viewBox="0 0 480 480" width="480"><g><path fill="#c0392b" d="M0 0h480v480H0z"/><g fill="#ecf0f1"><path d="M299.864 250.92c-2.287-8.1-5.527-14.913-9.723-20.44-4.194-5.523-9.18-9.74-14.954-12.65-5.775-2.906-12.152-4.36-19.13-4.36-8.974 0-16.808 1.828-23.493 5.483-6.69 3.657-12.61 8.434-17.76 14.333l-2.494-11.84c-.417-1.91-1.33-3.322-2.743-4.238-1.412-.913-3.115-1.37-5.11-1.37h-17.98c-.192-.088-.384-.147-.577-.147-.465 0-1.096.35-1.895 1.048-.797.698-1.828 1.463-3.09 2.294-1.264.832-2.76 1.595-4.486 2.293-1.73.698-3.79 1.047-6.183 1.047-1.93 0-3.725-.3-5.385-.897-1.662-.6-3.107-1.528-4.338-2.792-1.23-1.262-2.193-2.874-2.89-4.835-.698-1.96-1.048-4.304-1.048-7.03v-67.3h31.207v-7.08H156.58V94.557h-4.437c-.725 0-1.3.234-1.73.698-.427.466-.673.997-.737 1.595l-2.37 35.495-16.948 1.196v3.69c0 .73.232 1.296.7 1.694.462.398 1.06.6 1.792.6h14.258v67.798c0 7.777 1.86 13.527 5.584 17.25 3.723 3.723 8.94 5.583 15.654 5.583 4.188 0 8.225-.848 12.113-2.543 1.886-.822 3.606-1.775 5.173-2.855v160.71h30.783v-52.345c3.988 3.906 8.494 6.96 13.523 9.16 5.024 2.2 11.153 3.303 18.382 3.303 8.39 0 15.973-1.683 22.744-5.047 6.77-3.365 12.545-8.04 17.324-14.02 4.777-5.983 8.453-13.044 11.03-21.19 2.573-8.14 3.862-16.99 3.862-26.545.002-10.47-1.14-19.755-3.424-27.857zm-30.472 47.11c-1.414 5.443-3.428 9.95-6.045 13.522-2.617 3.574-5.816 6.232-9.596 7.977-3.782 1.744-7.997 2.616-12.65 2.616-4.735 0-9.16-.85-13.272-2.555-4.113-1.7-7.914-4.714-11.404-9.035v-57.33c3.904-4.9 8.12-8.702 12.65-11.403 4.527-2.7 9.99-4.05 16.39-4.05 4.07 0 7.704.747 10.905 2.242 3.196 1.496 5.92 3.863 8.16 7.104 2.245 3.24 3.968 7.458 5.173 12.65 1.205 5.193 1.81 11.527 1.81 19.006-.002 7.397-.71 13.816-2.12 19.256z"/><g><path d="M287.794 116.21h-13.04v48.863H263.46V116.21h-12.96v-9.025h37.292v9.025z"/><path d="M326.984 150.29l.436 2.227h.24l.438-2.107 9.66-43.218h11.89l-16.183 57.89h-11.77l-16.182-57.89h11.89l9.58 43.098z"/></g></g></g></svg>