<svg xmlns="http://www.w3.org/2000/svg" height="69.85" width="66.04"><g><path fill="#575757" d="M66.037 69.852H-.003V.002h66.04v69.85z"/></g><g><g font-size="15"><path d="M45.54 23.222l-3.41-8.93h1.263l2.83 7.518 2.834-7.518h1.256l-3.403 8.93h-1.37m-12.435-8.93h7.555v1.016h-3.17v7.914h-1.215v-7.914h-3.17v-1.016m-3.072 32.63V57.69h-6.555V29.382h6.555v3.003c.903-1.197 1.904-2.076 3.003-2.637 1.1-.574 2.362-.86 3.79-.86 2.527 0 4.602 1.006 6.226 3.02 1.623 2.003 2.435 4.584 2.435 7.746 0 3.162-.812 5.75-2.435 7.764-1.624 2.002-3.7 3.003-6.226 3.003-1.428 0-2.69-.28-3.79-.842-1.1-.574-2.1-1.458-3.003-2.655m4.358-13.275c-1.403 0-2.483.52-3.24 1.557-.745 1.025-1.117 2.508-1.117 4.45 0 1.94.372 3.43 1.117 4.467.757 1.025 1.837 1.538 3.24 1.538 1.405 0 2.473-.513 3.205-1.538.745-1.025 1.117-2.515 1.117-4.468 0-1.953-.372-3.442-1.117-4.468-.732-1.025-1.8-1.538-3.204-1.538m-13.986-21.49v4.66h5.552v2.094h-5.552v8.906c0 1.338.18 2.198.542 2.578.37.38 1.118.572 2.24.572h2.77v2.256h-2.77c-2.08 0-3.515-.386-4.306-1.158-.79-.78-1.186-2.197-1.186-4.248v-8.906h-1.978v-2.095h1.978V12.16h2.71" fill="#FFF"/></g></g></svg>